# Rhino

mtllib zorro00.mtl
usemtl diffuse_Black
v 3.9825642108917236 10.396257400512695 2.2046337127685547
v 16.641429901123047 0 2.2046337127685547
v 16.641429901123047 10.396257400512695 2.2046337127685547
v 5.9027290344238281 7.6095423698425293 2.2046337127685547
v 5.9027290344238281 0 2.2046337127685547
v 3.9825642108917236 7.6095423698425293 2.2046337127685547
v 16.641429901123047 0 -0.85340660810470581
v 16.641429901123047 10.396257400512695 -0.85340660810470581
v 3.9825642108917236 10.396257400512695 -0.85340660810470581
v 5.9027290344238281 0 -0.85340660810470581
v 5.9027290344238281 7.6095423698425293 -0.85340660810470581
v 3.9825642108917236 7.6095423698425293 -0.85340660810470581
v -14.081209182739258 12.374396324157715 3.2713921070098877
v -14.081209182739258 4.7145071029663086 3.2713921070098877
v -14.081209182739258 12.374396324157715 0.85340660810470581
v -14.081209182739258 4.7145071029663086 0.85340660810470581
v 0.24891026318073273 12.374396324157715 0.85340660810470581
v 0.24891026318073273 7.6095423698425293 0.85340660810470581
v 0.24891026318073273 12.374396324157715 3.2713921070098877
v 0.24891026318073273 7.6095423698425293 3.2713921070098877
v -4.4803848266601563 4.7145071029663086 3.2713921070098877
v -4.4803848266601563 7.6095423698425293 3.2713921070098877
v -0.85340660810470581 12.374396324157715 0.85340660810470581
v -4.4803848266601563 4.7145071029663086 0.85340660810470581
v 2.7024543285369873 0 12.374396324157715
v 2.7024543285369873 4.6226191520690918 12.374396324157715
v 4.5515017509460449 0 12.374396324157715
v 4.5515017509460449 4.6226191520690918 12.374396324157715
v 4.5515017509460449 4.6226191520690918 4.4092674255371094
v 4.5515017509460449 0 4.4092674255371094
v 2.7024543285369873 0 4.4092674255371094
v 2.7024543285369873 4.6226191520690918 4.4092674255371094
v 1.3512271642684937 7.6095423698425293 0.85340660810470581
v 1.3512271642684937 12.374396324157715 0.85340660810470581
v 1.3512271642684937 0 -11.520989418029785
v 1.3512271642684937 12.374396324157715 -11.520989418029785
v 1.3512271642684937 7.6095423698425293 -3.2002747058868408
v 1.3512271642684937 0 -3.2002747058868408
v -0.85340660810470581 0 -11.520989418029785
v -0.85340660810470581 12.374396324157715 -11.520989418029785
v -0.85340660810470581 0 -3.2002747058868408
v -0.85340660810470581 7.6095423698425293 -3.2002747058868408
v -0.85340660810470581 7.6095423698425293 0.85340660810470581
v -4.4803848266601563 0 -3.2002747058868408
v -4.4803848266601563 7.6095423698425293 -3.2002747058868408
v 5.9027290344238281 0 -3.2002747058868408
v 5.9027290344238281 7.6095423698425293 -3.2002747058868408
v -4.4803848266601563 0 4.4092674255371094
v -4.4803848266601563 7.6095423698425293 4.4092674255371094
v 5.9027290344238281 0 4.4092674255371094
v 5.9027290344238281 7.6095423698425293 4.4092674255371094
v -4.4803848266601563 7.6095423698425293 0.85340660810470581
vt 0.79593658447265625 0.51141703128814697
vt 0.99853515625 0.75989210605621338
vt 0.79593658447265625 0.75989210605621338
vt 0.85024309158325195 0.54910707473754883
vt 0.99853515625 0.54910707473754883
vt 0.85024309158325195 0.51141703128814697
vt 0.2348213791847229 0.48578274250030518
vt 0.2348213791847229 0.68984609842300415
vt 0.29484626650810242 0.48578274250030518
vt 0.29484626650810242 0.68984609842300415
vt 0.79447174072265625 0.51141703128814697
vt 0.59187322854995728 0.51141703128814697
vt 0.59187322854995728 0.75989210605621338
vt 0.79447174072265625 0.72220206260681152
vt 0.64617973566055298 0.72220206260681152
vt 0.64617973566055298 0.75989210605621338
vt 0.096136212348937988 0
vt 0.041437055915594101 0
vt 0.096136212348937988 0.06002487987279892
vt 0.041437055915594101 0.06002487987279892
vt 0.29872846603393555 0.85570347309112549
vt 0.29872846603393555 0.91426354646682739
vt 0.54720354080200195 0.85570347309112549
vt 0.54720354080200195 0.91426354646682739
vt 0.54080104827880859 0.63514697551727295
vt 0.39044860005378723 0.63514697551727295
vt 0.54080104827880859 0.68114364147186279
vt 0.39044860005378723 0.68114364147186279
vt 0.21569941937923431 0
vt 0.21569941937923431 0.093527138233184814
vt 0.26316094398498535 0
vt 0.26316094398498535 0.093527138233184814
vt 0.9462890625 0
vt 0.9462890625 0.28127938508987427
vt 0.79593658447265625 0.28127938508987427
vt 0.85276192426681519 0
vt 0.79593658447265625 0.09282916784286499
vt 0.85276192426681519 0.09282916784286499
vt 0.58000785112380981 0.91572839021682739
vt 0.29872846603393555 0.91572839021682739
vt 0.58000785112380981 0.96172505617141724
vt 0.29872846603393555 0.96172505617141724
vt 0.32036533951759338 0.96172505617141724
vt 0.48717865347862244 0.718902587890625
vt 0.29872846603393555 0.718902587890625
vt 0.48717865347862244 0.76489931344985962
vt 0.29872846603393555 0.76489931344985962
vt 0.14619210362434387 0
vt 0.14619210362434387 0.090735279023647308
vt 0.18248622119426727 0
vt 0.18248622119426727 0.090735279023647308
vt 0.19730524718761444 0.29420644044876099
vt 0.10656996816396713 0.29420644044876099
vt 0.10656996816396713 0.45055031776428223
vt 0.19730524718761444 0.45055031776428223
vt 0.090735279023647308 0.29420644044876099
vt 0 0.29420644044876099
vt 0.090735279023647308 0.45055031776428223
vt 0 0.45055031776428223
vt 0.21313993632793427 0.29420644044876099
vt 0.21313993632793427 0.45055031776428223
vt 0.24943405389785767 0.29420644044876099
vt 0.24943405389785767 0.45055031776428223
vt 0 0
vt 0.021636875346302986 0
vt 0.021636875346302986 0.093527138233184814
vt 0 0.093527138233184814
vt 0.30659359693527222 0.24289137125015259
vt 0.5494849681854248 0.48431789875030518
vt 0.30659359693527222 0.48431789875030518
vt 0.40012073516845703 0.32197937369346619
vt 0.5494849681854248 0.32197937369346619
vt 0.40012073516845703 0.24289137125015259
vt 0.24289137125015259 0.16762925684452057
vt 0 0.16762925684452057
vt 0.24289137125015259 0.21090300381183624
vt 0 0.21090300381183624
vt 0.5494849681854248 0
vt 0.30659359693527222 0
vt 0.30659359693527222 0.24142652750015259
vt 0.5494849681854248 0.16233852505683899
vt 0.40012073516845703 0.16233852505683899
vt 0.40012073516845703 0.24142652750015259
vt 0.24289137125015259 0.1146036759018898
vt 0 0.1146036759018898
vt 0.24289137125015259 0.15787743031978607
vt 0 0.15787743031978607
vt 0.24289137125015259 0.13624054193496704
vt 0.46205195784568787 0.81242972612380981
vt 0.29872846603393555 0.81242972612380981
vt 0.29872846603393555 0.85423862934112549
vt 0.46205195784568787 0.85423862934112549
vt 0.15902461111545563 0.63514697551727295
vt 0.23021690547466278 0.48578274250030518
vt 0.23021690547466278 0.63514697551727295
vt 0.15902461111545563 0.48578274250030518
vt 0.29872846603393555 0.48578274250030518
vt 0.29872846603393555 0.63368213176727295
vt 0.3866029679775238 0.48578274250030518
vt 0.3866029679775238 0.63368213176727295
vt 0.54679244756698608 0.68260848522186279
vt 0.39044860005378723 0.68260848522186279
vt 0.54679244756698608 0.717437744140625
vt 0.39044860005378723 0.717437744140625
vt 0.29726362228393555 0.72463732957839966
vt 0.14936423301696777 0.72463732957839966
vt 0.29726362228393555 0.92844271659851074
vt 0.14936423301696777 0.92844271659851074
vt 0.29726362228393555 0.86562597751617432
vt 0.20741820335388184 0.90192008018493652
vt 0.29726362228393555 0.90192008018493652
vt 0.20741820335388184 0.86562597751617432
vt 0.14789938926696777 0.72463732957839966
vt 0 0.72463732957839966
vt 0.14789938926696777 0.92844271659851074
vt 0 0.92844271659851074
vt 0.14789938926696777 0.86562597751617432
vt 0.10505003482103348 0.92844271659851074
vt 0 0.8391033411026001
vt 0 0.79582959413528442
vt 0.14789938926696777 0.90192008018493652
vt 0.045613832771778107 0.92844271659851074
vt 0.74222570657730103 0
vt 0.59187322854995728 0
vt 0.59187322854995728 0.18845020234584808
vt 0.74222570657730103 0.25964251160621643
vt 0.64869856834411621 0.25964251160621643
vt 0.64869856834411621 0.18845020234584808
vt 0 0.48578274250030518
vt 0 0.63514697551727295
vt 0.14936423301696777 0.48578274250030518
vt 0.14936423301696777 0.63514697551727295
vt 0.079567857086658478 0.63514697551727295
vt 0.079567857086658478 0.57832163572311401
vt 0.12702938914299011 0.63514697551727295
vt 0.12702938914299011 0.57832163572311401
vt 0.29872846603393555 0.63514697551727295
vt 0.29872846603393555 0.71471482515335083
vt 0.3699207603931427 0.71471482515335083
vt 0.3699207603931427 0.63514697551727295
vt 0 0.28067970275878906
vt 0.21078503131866455 0.22065483033657074
vt 0.21078503131866455 0.28067970275878906
vt 0 0.22065483033657074
vt 0.44809269905090332 0.76636415719985962
vt 0.44809269905090332 0.81096488237380981
vt 0.29872846603393555 0.81096488237380981
vt 0.29872846603393555 0.76636415719985962
vt 0.25576794147491455 0.29420644044876099
vt 0.25576794147491455 0.44357067346572876
vt 0.29904168844223022 0.29420644044876099
vt 0.29904168844223022 0.44357067346572876
vt 0.3880678117275238 0.48578274250030518
vt 0.59040838479995728 0.48578274250030518
vt 0.59040838479995728 0.63368213176727295
vt 0.59040838479995728 0.52863210439682007
vt 0.50171113014221191 0.63368213176727295
vt 0.50171113014221191 0.55489462614059448
vt 0.48022979497909546 0.55489462614059448
vt 0.48022979497909546 0.50789850950241089
vt 0.3880678117275238 0.50789850950241089
vt 0.55298924446105957 0.52863210439682007
vt 0.55298924446105957 0.58806830644607544
vt 0.59040838479995728 0.58806830644607544
vn 0 0 1
vn 0 0 1
vn 0 0 1
vn 0 0 1
vn 0 0 1
vn 0 0 1
vn 1 0 0
vn 1 0 0
vn 1 0 0
vn 1 0 0
vn 0 0 -1
vn 0 0 -1
vn 0 0 -1
vn 0 0 -1
vn 0 0 -1
vn 0 0 -1
vn -1 0 0
vn -1 0 0
vn -1 0 0
vn -1 0 0
vn 0 1 0
vn 0 1 0
vn 0 1 0
vn 0 1 0
vn -1 0 0
vn -1 0 0
vn -1 0 0
vn -1 0 0
vn 1 0 0
vn 1 0 0
vn 1 0 0
vn 1 0 0
vn 0 0 1
vn 0 0 1
vn 0 0 1
vn 0 0 1
vn 0 0 1
vn 0 0 1
vn 0 1 0
vn 0 1 0
vn 0 1 0
vn 0 1 0
vn 0 1 0
vn 0 -1 0
vn 0 -1 0
vn 0 -1 0
vn 0 -1 0
vn 0 0 1
vn 0 0 1
vn 0 0 1
vn 0 0 1
vn 1 0 0
vn 1 0 0
vn 1 0 0
vn 1 0 0
vn -1 0 0
vn -1 0 0
vn -1 0 0
vn -1 0 0
vn 0 1 0
vn 0 1 0
vn 0 1 0
vn 0 1 0
vn 0 0 1
vn 0 0 1
vn 0 0 1
vn 0 0 1
vn 1 0 0
vn 1 0 0
vn 1 0 0
vn 1 0 0
vn 1 0 0
vn 1 0 0
vn 0 0 -1
vn 0 0 -1
vn 0 0 -1
vn 0 0 -1
vn -1 0 0
vn -1 0 0
vn -1 0 0
vn -1 0 0
vn -1 0 0
vn -1 0 0
vn 0 1 0
vn 0 1 0
vn 0 1 0
vn 0 1 0
vn 0 1 0
vn 0 -1 0
vn 0 -1 0
vn 0 -1 0
vn 0 -1 0
vn 0 0 -1
vn 0 0 -1
vn 0 0 -1
vn 0 0 -1
vn 0 0 -1
vn 0 0 -1
vn 0 0 -1
vn 0 0 -1
vn 0 -1 0
vn 0 -1 0
vn 0 -1 0
vn 0 -1 0
vn 0 0 1
vn 0 0 1
vn 0 0 1
vn 0 0 1
vn 0 0 1
vn 0 0 1
vn 0 0 1
vn 0 0 1
vn 0 -1 0
vn 0 -1 0
vn 0 -1 0
vn 0 -1 0
vn 0 -1 0
vn 0 -1 0
vn 0 -1 0
vn 0 -1 0
vn 0 -1 0
vn 0 -1 0
vn 0 0 -1
vn 0 0 -1
vn 0 0 -1
vn 0 0 -1
vn 0 0 -1
vn 0 0 -1
vn -1 0 0
vn -1 0 0
vn -1 0 0
vn -1 0 0
vn -1 0 0
vn -1 0 0
vn -1 0 0
vn -1 0 0
vn 0 1 0
vn 0 1 0
vn 0 1 0
vn 0 1 0
vn 0 -1 0
vn 0 -1 0
vn 0 -1 0
vn 0 -1 0
vn 1 0 0
vn 1 0 0
vn 1 0 0
vn 1 0 0
vn 1 0 0
vn 1 0 0
vn 1 0 0
vn 1 0 0
vn 0 1 0
vn 0 1 0
vn 0 1 0
vn 0 1 0
vn 0 1 0
vn 0 1 0
vn 0 1 0
vn 0 1 0
vn 0 1 0
vn 0 1 0
vn 0 1 0
vn 0 1 0
f 1/1/1 6/6/6 4/4/4 5/5/5 2/2/2 3/3/3
f 8/12/12 7/11/11 10/14/14 11/15/15 12/16/16 9/13/13
f 22/38/38 20/36/36 19/33/33 13/34/34 14/35/35 21/37/37
f 23/43/43 15/41/41 13/39/39 19/40/40 17/42/42
f 34/68/68 33/73/73 37/71/71 38/72/72 35/69/69 36/70/70
f 40/79/79 39/78/78 41/81/81 42/82/82 43/83/83 23/80/80
f 40/85/85 23/84/84 17/88/88 34/86/86 36/87/87
f 48/105/105 31/109/109 32/112/112 29/110/110 30/111/111 50/107/107 51/108/108 49/106/106
f 48/113/113 44/114/114 41/120/120 38/119/119 46/116/116 10/122/122 5/118/118 50/115/115 30/121/121 31/117/117
f 16/124/124 15/123/123 23/126/126 43/127/127 52/128/128 24/125/125
f 45/130/130 44/129/129 48/131/131 49/132/132 22/135/135 21/136/136 24/134/134 52/133/133
f 22/161/161 49/153/153 51/154/154 4/156/156 6/162/162 12/163/163 11/164/164 47/155/155 37/157/157 33/158/158 18/159/159 20/160/160
f 3/8/8 2/7/7 7/9/9 8/10/10
f 9/18/18 12/17/17 6/19/19 1/20/20
f 9/22/22 1/21/21 3/23/23 8/24/24
f 14/26/26 13/25/25 15/27/27 16/28/28
f 18/30/30 17/29/29 19/31/31 20/32/32
f 21/45/45 14/44/44 16/46/46 24/47/47
f 26/49/49 25/48/48 27/50/50 28/51/51
f 28/53/53 27/52/52 30/55/55 29/54/54
f 32/57/57 31/56/56 25/58/58 26/59/59
f 32/61/61 26/60/60 28/62/62 29/63/63
f 17/67/67 18/64/64 33/65/65 34/66/66
f 36/75/75 35/74/74 39/76/76 40/77/77
f 39/90/90 35/91/91 38/92/92 41/89/89
f 42/93/93 41/96/96 44/94/94 45/95/95
f 47/98/98 46/97/97 38/99/99 37/100/100
f 31/102/102 30/104/104 27/103/103 25/101/101
f 45/138/138 52/137/137 43/140/140 42/139/139
f 10/141/141 7/143/143 2/142/142 5/144/144
f 11/148/148 10/145/145 46/146/146 47/147/147
f 51/150/150 50/149/149 5/151/151 4/152/152
